HIERARCHY
ROOT Hips
{
	OFFSET 0.0000 0.0000 0.0000
	CHANNELS 6 Xposition Yposition Zposition Zrotation Xrotation Yrotation
	JOINT Ab
	{
		OFFSET -0.0000 8.1305 -0.0000
		CHANNELS 3 Zrotation Xrotation Yrotation
		JOINT Chest
		{
			OFFSET -0.0000 26.2902 -0.0000
			CHANNELS 3 Zrotation Xrotation Yrotation
			JOINT Neck
			{
				OFFSET -0.0000 26.2902 0.0000
				CHANNELS 3 Zrotation Xrotation Yrotation
				JOINT Head
				{
					OFFSET -0.0000 10.8167 0.0000
					CHANNELS 3 Zrotation Xrotation Yrotation
					End Site
					{
						OFFSET -0.0000 16.7167 0.0000
					}
				}
			}
			JOINT LeftCollar
			{
				OFFSET -0.0000 26.2902 0.0000
				CHANNELS 3 Zrotation Xrotation Yrotation
				JOINT LeftShoulder
				{
					OFFSET 19.6667 -0.0000 0.0000
					CHANNELS 3 Zrotation Xrotation Yrotation
					JOINT LeftElbow
					{
						OFFSET 27.2190 0.0000 0.0000
						CHANNELS 3 Zrotation Xrotation Yrotation
						JOINT LeftWrist
						{
							OFFSET 30.7431 0.0000 0.0000
							CHANNELS 3 Zrotation Xrotation Yrotation
							End Site
							{
								OFFSET 0.0000 -14.7500 0.0000
							}
						}
					}
				}
			}
			JOINT RightCollar
			{
				OFFSET -0.0000 26.2902 0.0000
				CHANNELS 3 Zrotation Xrotation Yrotation
				JOINT RightShoulder
				{
					OFFSET -19.6667 0.0000 0.0000
					CHANNELS 3 Zrotation Xrotation Yrotation
					JOINT RightElbow
					{
						OFFSET -27.2190 0.0000 0.0000
						CHANNELS 3 Zrotation Xrotation Yrotation
						JOINT RightWrist
						{
							OFFSET -30.7431 0.0000 0.0000
							CHANNELS 3 Zrotation Xrotation Yrotation
							End Site
							{
								OFFSET -0.0000 -14.7500 0.0000
							}
						}
					}
				}
			}
		}
	}
	JOINT LeftHip
	{
		OFFSET 11.8000 0.0000 0.0000
		CHANNELS 3 Zrotation Xrotation Yrotation
		JOINT LeftKnee
		{
			OFFSET -0.0000 -39.7832 0.0000
			CHANNELS 3 Zrotation Xrotation Yrotation
			JOINT LeftAnkle
			{
				OFFSET -0.0000 -41.7317 0.0000
				CHANNELS 3 Zrotation Xrotation Yrotation
				End Site
				{
					OFFSET -0.0000 -4.9167 16.7167
				}
			}
		}
	}
	JOINT RightHip
	{
		OFFSET -11.8000 0.0000 0.0000
		CHANNELS 3 Zrotation Xrotation Yrotation
		JOINT RightKnee
		{
			OFFSET -0.0000 -39.7832 0.0000
			CHANNELS 3 Zrotation Xrotation Yrotation
			JOINT RightAnkle
			{
				OFFSET -0.0000 -41.7317 0.0000
				CHANNELS 3 Zrotation Xrotation Yrotation
				End Site
				{
					OFFSET -0.0000 -4.9167 16.7167
				}
			}
		}
	}
}
MOTION
Frames: 13
Frame Time: 0.010000
-5.7945 92.0933 93.5402 356.1711 347.7685 186.1936 358.3996 350.4926 2.4168 0.6955 9.8430 2.4927 350.2890 343.9318 355.7912 4.3389 8.7449 356.8216 337.6561 357.3739 13.2802 321.5800 40.5472 1.2801 355.7270 2.0329 306.1225 86.8878 357.3858 334.6471 26.2653 355.9427 342.7672 33.9739 48.0169 12.6881 335.3371 344.4732 64.5062 265.6711 353.6923 359.3663 349.8778 336.0413 358.8001 358.7020 11.8643 1.0184 348.6989 349.5131 13.1636 356.2719 3.3936 5.8744 9.3548 18.4426 13.1239 353.2236 342.4424 320.2771 
-5.6963 91.8211 92.4947 356.2969 347.9660 186.1444 358.3516 350.4840 2.4470 0.6350 9.8176 2.5332 350.3114 343.9077 355.8026 4.3955 9.0200 356.8155 337.6462 357.3726 13.3323 321.6711 40.5776 1.2867 355.8841 1.9953 306.0434 86.4345 357.4588 334.3709 26.2692 355.9220 342.6126 34.0992 48.0118 12.5754 335.6521 344.6506 64.5861 265.7421 353.7412 359.4661 349.9348 336.2044 358.4260 358.7264 11.4246 1.1749 348.7564 349.4475 13.1945 356.4897 3.7173 5.7400 9.4486 19.5057 13.8880 353.9706 341.9266 319.9063 
-5.5746 91.4533 91.2032 356.4737 348.3256 186.1713 358.3190 350.6035 2.4113 0.5455 9.7380 2.5044 350.4476 344.1442 355.8184 4.4339 9.0288 356.7842 337.6665 357.3606 13.4049 321.9059 40.6464 1.0944 355.9696 1.9874 306.0916 85.7921 357.4792 334.0508 26.3217 355.8873 342.4332 34.2674 48.0046 12.3391 336.0441 344.9234 64.6347 265.7521 353.8354 359.6753 350.0712 336.6162 357.8474 358.6580 11.2372 1.2865 348.7657 349.2668 13.3405 356.7408 4.0510 5.3365 9.6621 21.1226 14.2520 353.9962 341.8781 320.2805 
-5.4436 90.8846 89.5323 356.6079 348.7011 186.0631 358.3066 350.5152 2.3171 0.3474 9.8430 2.4277 350.4982 344.5487 355.9704 4.6773 8.8662 356.8973 337.7927 357.3706 13.5915 322.0697 40.7825 0.9091 356.1075 1.9004 305.7212 85.5438 357.6230 333.9034 26.4528 355.8557 342.4638 34.4351 47.8046 11.8790 336.6895 345.4600 64.7129 265.6687 353.8870 359.6427 350.1401 337.1612 357.4021 358.7891 11.3270 0.8295 350.0704 350.4629 13.9119 356.8157 4.0665 5.1914 10.2147 23.6602 14.6608 354.0181 341.7897 320.4977 
-5.3290 90.3262 88.0232 356.7320 349.0451 185.9437 358.3098 350.4823 2.2305 0.1266 9.8365 2.3609 350.5789 345.0732 356.1266 4.7850 8.5906 357.0094 337.8898 357.3264 13.8379 322.2343 41.0251 0.7066 356.3525 1.7620 305.5133 86.7519 357.0952 334.7991 26.5821 355.8366 342.6074 34.7374 47.7727 11.2502 337.2699 345.8529 64.6753 265.8616 353.8283 0.0102 350.2712 337.4271 356.9756 358.6789 12.5057 0.8038 351.4406 350.7645 14.4446 356.7982 4.0106 4.9024 10.7623 26.1202 14.8846 354.3490 341.6891 320.9467 
-5.2806 90.0386 87.0805 356.7441 349.2970 185.8141 358.2557 350.4735 2.2055 359.9864 9.8754 2.3545 350.5689 345.3278 356.2441 4.8928 8.4543 357.0972 337.7537 357.2582 13.9279 322.4443 40.8319 0.7903 356.3799 1.8348 305.3906 87.6272 356.8950 335.0659 26.6485 355.8629 342.7465 34.9336 47.8085 10.9032 337.7459 346.0870 64.5949 266.1265 353.7235 0.6511 350.3886 337.6158 356.6189 358.4102 13.6548 1.3432 351.9615 350.2900 14.4429 356.7306 4.1060 4.8294 11.2101 27.5348 14.8603 354.7818 341.4788 321.2545 
-5.2298 89.7882 86.0580 356.6881 349.4551 185.6254 358.1559 350.4149 2.1762 359.8110 9.9635 2.3494 350.6133 345.4674 356.3459 4.9069 8.3240 357.1909 337.6861 357.2346 13.9752 322.5574 40.6569 0.7670 356.5789 1.7310 305.2991 87.8652 356.8392 335.1455 26.6743 355.8872 342.8494 35.3532 47.8529 10.4507 338.0904 346.3663 64.2655 266.2379 353.7649 1.0078 350.4403 337.7902 356.2434 358.1736 14.8011 1.3351 352.8936 350.2674 14.8309 356.5118 4.2487 4.5528 11.5512 28.8971 15.0480 355.4168 341.1742 321.6401 
-5.1879 89.5223 84.8508 356.5789 349.5534 185.4355 358.1567 350.2119 2.0729 359.3730 10.1922 2.2865 350.7164 345.5444 356.4994 4.9091 8.1909 357.3317 337.7628 357.2331 14.0866 322.6398 40.4879 0.5774 356.8675 1.5566 305.2089 88.2055 356.7921 335.3219 26.8197 355.9052 343.1231 36.1926 47.3522 9.4668 338.7272 346.9023 64.0127 266.5304 353.6974 1.8836 350.3016 337.9245 355.8684 358.1440 16.0808 0.7894 354.3700 350.8058 15.5921 356.1928 4.3282 4.6843 12.1288 30.3492 14.7364 355.8797 341.1031 322.1221 
-5.1872 89.3195 83.5828 356.2462 349.6261 185.2242 357.8064 350.0302 2.0046 359.1170 10.2815 2.2762 350.7802 345.7293 356.6284 4.8485 8.0042 357.4498 337.6052 357.1944 14.2105 322.9060 40.4175 0.4088 357.1119 1.4290 305.1060 88.4606 356.7484 335.5755 26.9235 355.9290 343.2690 36.8151 47.4815 8.6940 338.9703 347.1646 63.2858 267.0051 353.6837 2.2544 349.9006 338.2248 355.6837 358.3236 16.7996 359.7117 355.4123 351.5190 17.1893 355.6265 4.3671 4.5780 12.4320 31.9348 14.9417 356.6768 341.2235 322.4907 
-5.1796 89.1874 82.3460 355.7818 349.6740 185.0845 357.2438 349.9567 1.9114 358.9003 10.2927 2.2544 350.8828 345.7209 356.6945 4.7587 7.9344 357.5123 337.5674 357.1715 14.2760 322.8086 40.5205 0.3347 357.7168 0.9954 305.0367 88.5691 356.6105 335.9503 27.0409 355.9338 343.2889 37.4671 47.5039 8.0152 339.1666 347.4937 62.2536 267.4278 353.5308 2.8283 349.4947 338.1298 355.1288 358.0976 18.5963 359.2901 356.2140 351.4545 18.5571 355.0026 4.1711 4.3748 12.6286 33.8989 15.2143 357.8335 341.3912 322.8552 
-5.1854 89.1248 81.1398 355.3063 349.7129 185.0846 356.6201 349.9961 1.8380 358.8025 10.1920 2.2447 350.7861 345.8011 356.6762 4.8110 7.8317 357.4973 337.3080 357.1395 14.2452 323.4628 40.4227 359.8960 357.6644 1.1530 304.8207 88.7782 356.6503 336.0088 27.0162 355.9399 343.2889 38.5329 47.1879 6.9104 339.2944 347.7973 61.2652 267.9999 353.7155 3.3729 349.1379 338.2134 353.9100 357.3977 19.9584 0.7644 357.3123 351.6102 18.4298 354.3410 3.6796 4.3501 13.3118 36.1031 14.4030 359.2427 341.9431 323.7371 
-5.2125 89.0926 79.9255 354.9896 349.8138 185.1886 356.1979 350.1204 1.8015 358.6647 10.0884 2.2502 350.8550 345.8012 356.6181 4.6891 7.8534 357.4342 337.1751 357.1528 14.0778 323.8315 40.5521 359.5188 357.8496 1.0497 304.6216 88.6503 356.6197 335.8975 26.9738 355.9369 343.2835 39.7061 46.6264 5.5791 339.4951 348.1495 60.3771 268.4413 353.8280 3.9408 348.7512 338.5375 353.5340 357.1706 21.0058 0.9212 358.0234 351.4367 18.5594 353.6985 2.9453 3.6876 14.0514 38.8207 13.7257 0.7616 342.9022 324.7602 
-5.2424 89.0490 78.7091 354.8337 350.0248 185.2065 356.1141 350.2676 1.7906 358.3768 10.1322 2.2675 350.8157 345.7284 356.6356 4.6594 8.0236 357.4631 337.1645 357.1512 14.1274 324.2078 40.8136 358.8545 358.1725 0.8682 304.4324 88.6026 356.5798 335.8518 26.9620 355.9739 343.4460 40.6346 46.1324 4.3119 339.7585 348.5116 59.6939 268.9109 354.2327 4.4886 348.4558 339.2480 353.4449 357.2101 21.6126 0.3774 358.6005 351.1064 18.8656 353.0103 2.0473 2.6062 14.8758 41.8295 12.9689 2.1270 344.4885 325.9227 
